<?xml version="1.0" standalone="no"?>
<!DOCTYPE svg PUBLIC "-//W3C//DTD SVG 20010904//EN"
 "http://www.w3.org/TR/2001/REC-SVG-20010904/DTD/svg10.dtd">
<svg version="1.0" xmlns="http://www.w3.org/2000/svg"
 width="512.000000pt" height="512.000000pt" viewBox="0 0 512.000000 512.000000"
 preserveAspectRatio="xMidYMid meet">

<g transform="translate(0.000000,512.000000) scale(0.100000,-0.100000)"
fill="#000000" stroke="none">
<path d="M1746 5019 c-60 -47 -56 71 -56 -1709 l0 -1630 -780 0 c-879 0 -825
5 -856 -75 -14 -38 -16 -65 -11 -155 27 -463 266 -879 652 -1133 157 -103 308
-167 495 -209 l105 -23 1270 0 1270 0 111 27 c647 155 1098 692 1131 1348 6
128 -2 159 -53 199 -26 20 -38 21 -331 21 -255 0 -304 2 -300 14 79 204 102
505 57 731 -136 685 -749 1399 -1835 2137 -206 140 -343 228 -579 370 -152 92
-186 108 -221 108 -28 0 -52 -7 -69 -21z m351 -612 c286 -346 465 -591 633
-870 425 -704 561 -1300 409 -1793 l-20 -64 -589 0 -590 0 0 1450 c0 798 3
1450 8 1450 4 0 71 -78 149 -173z m465 -115 c371 -260 637 -475 874 -705 421
-408 656 -766 751 -1143 24 -97 27 -128 28 -274 0 -181 -12 -255 -67 -407
l-30 -83 -365 0 -365 0 5 23 c2 12 15 69 28 127 20 92 23 132 23 325 1 170 -4
243 -18 320 -97 540 -372 1100 -853 1737 -57 76 -101 138 -99 138 3 0 43 -26
88 -58z m2254 -2924 c-23 -225 -147 -484 -319 -665 -182 -191 -444 -326 -701
-362 -107 -15 -2365 -15 -2472 0 -184 25 -402 116 -552 228 -253 191 -438 507
-468 799 l-7 62 2263 0 2263 0 -7 -62z"/>
<path d="M1333 999 c-108 -31 -113 -191 -7 -235 49 -21 2419 -21 2468 0 109
45 101 204 -12 236 -47 13 -2403 12 -2449 -1z"/>
</g>
</svg>
